<?xml version="1.0" encoding="UTF-8"?>
<svg version="1.1" viewBox="0 0 24 24" xmlns="http://www.w3.org/2000/svg" width="24" height="24">
<title>icon/menu</title>
<g fill="none" fill-rule="evenodd">
<polygon points="0 0 24 0 24 24 0 24"/>
<path d="m4 18h16c0.55 0 1-0.45 1-1s-0.45-1-1-1h-16c-0.55 0-1 0.45-1 1s0.45 1 1 1zm0-5h16c0.55 0 1-0.45 1-1s-0.45-1-1-1h-16c-0.55 0-1 0.45-1 1s0.45 1 1 1zm-1-6c0 0.55 0.45 1 1 1h16c0.55 0 1-0.45 1-1s-0.45-1-1-1h-16c-0.55 0-1 0.45-1 1z" fill="#4E5E6F" fill-rule="nonzero"/>
</g>
</svg>
